<svg width="179" height="35" viewBox="0 0 179 35" fill="none" xmlns="http://www.w3.org/2000/svg">
<path d="M10.816 0.0159912V19.168C10.816 20.736 11.152 21.984 11.824 22.912C12.528 23.808 13.648 24.256 15.184 24.256C16.72 24.256 17.856 23.808 18.592 22.912C19.328 21.984 19.696 20.736 19.696 19.168V0.0159912H30.304V19.168C30.304 22.4 29.632 25.168 28.288 27.472C26.944 29.744 25.104 31.456 22.768 32.608C20.432 33.76 17.824 34.336 14.944 34.336C12.064 34.336 9.50401 33.76 7.26401 32.608C5.05601 31.456 3.32801 29.744 2.08001 27.472C0.832008 25.2 0.208008 22.432 0.208008 19.168V0.0159912H10.816Z" fill="white"/>
<path d="M51.988 34L45.604 21.808H45.556V34H34.9V0.0159912H50.74C53.492 0.0159912 55.844 0.511991 57.796 1.50399C59.748 2.46399 61.204 3.79199 62.164 5.48799C63.156 7.15199 63.652 9.03999 63.652 11.152C63.652 13.424 63.012 15.44 61.732 17.2C60.484 18.96 58.676 20.224 56.308 20.992L63.7 34H51.988ZM45.556 14.704H49.78C50.804 14.704 51.572 14.48 52.084 14.032C52.596 13.552 52.852 12.816 52.852 11.824C52.852 10.928 52.58 10.224 52.036 9.71199C51.524 9.19999 50.772 8.94399 49.78 8.94399H45.556V14.704Z" fill="white"/>
<path d="M77.7123 25.936H87.9843V34H67.0563V0.0159912H77.7123V25.936Z" fill="white"/>
<path d="M95.4415 34.216C94.4335 34.216 93.5295 34.048 92.7295 33.712C91.9295 33.36 91.2975 32.88 90.8335 32.272C90.3695 31.648 90.1135 30.936 90.0655 30.136H92.3215C92.3855 30.792 92.6895 31.328 93.2335 31.744C93.7935 32.16 94.5215 32.368 95.4175 32.368C96.2495 32.368 96.9055 32.184 97.3855 31.816C97.8655 31.448 98.1055 30.984 98.1055 30.424C98.1055 29.848 97.8495 29.424 97.3375 29.152C96.8255 28.864 96.0335 28.584 94.9615 28.312C93.9855 28.056 93.1855 27.8 92.5615 27.544C91.9535 27.272 91.4255 26.88 90.9775 26.368C90.5455 25.84 90.3295 25.152 90.3295 24.304C90.3295 23.632 90.5295 23.016 90.9295 22.456C91.3295 21.896 91.8975 21.456 92.6335 21.136C93.3695 20.8 94.2095 20.632 95.1535 20.632C96.6095 20.632 97.7855 21 98.6815 21.736C99.5775 22.472 100.058 23.48 100.122 24.76H97.9375C97.8895 24.072 97.6095 23.52 97.0975 23.104C96.6015 22.688 95.9295 22.48 95.0815 22.48C94.2975 22.48 93.6735 22.648 93.2095 22.984C92.7455 23.32 92.5135 23.76 92.5135 24.304C92.5135 24.736 92.6495 25.096 92.9215 25.384C93.2095 25.656 93.5615 25.88 93.9775 26.056C94.4095 26.216 95.0015 26.4 95.7535 26.608C96.6975 26.864 97.4655 27.12 98.0575 27.376C98.6495 27.616 99.1535 27.984 99.5695 28.48C100.002 28.976 100.226 29.624 100.242 30.424C100.242 31.144 100.042 31.792 99.6415 32.368C99.2415 32.944 98.6735 33.4 97.9375 33.736C97.2175 34.056 96.3855 34.216 95.4415 34.216Z" fill="white"/>
<path d="M109.853 20.608C110.845 20.608 111.741 20.824 112.541 21.256C113.341 21.672 113.965 22.304 114.413 23.152C114.877 24 115.109 25.032 115.109 26.248V34H112.949V26.56C112.949 25.248 112.621 24.248 111.965 23.56C111.309 22.856 110.413 22.504 109.277 22.504C108.125 22.504 107.205 22.864 106.517 23.584C105.845 24.304 105.509 25.352 105.509 26.728V34H103.325V16.24H105.509V22.72C105.941 22.048 106.533 21.528 107.285 21.16C108.053 20.792 108.909 20.608 109.853 20.608Z" fill="white"/>
<path d="M124.412 34.216C123.18 34.216 122.06 33.936 121.052 33.376C120.06 32.816 119.276 32.024 118.7 31C118.14 29.96 117.86 28.76 117.86 27.4C117.86 26.056 118.148 24.872 118.724 23.848C119.316 22.808 120.116 22.016 121.124 21.472C122.132 20.912 123.26 20.632 124.508 20.632C125.756 20.632 126.884 20.912 127.892 21.472C128.9 22.016 129.692 22.8 130.268 23.824C130.86 24.848 131.156 26.04 131.156 27.4C131.156 28.76 130.852 29.96 130.244 31C129.652 32.024 128.844 32.816 127.82 33.376C126.796 33.936 125.66 34.216 124.412 34.216ZM124.412 32.296C125.196 32.296 125.932 32.112 126.62 31.744C127.308 31.376 127.86 30.824 128.276 30.088C128.708 29.352 128.924 28.456 128.924 27.4C128.924 26.344 128.716 25.448 128.3 24.712C127.884 23.976 127.34 23.432 126.668 23.08C125.996 22.712 125.268 22.528 124.484 22.528C123.684 22.528 122.948 22.712 122.276 23.08C121.62 23.432 121.092 23.976 120.692 24.712C120.292 25.448 120.092 26.344 120.092 27.4C120.092 28.472 120.284 29.376 120.668 30.112C121.068 30.848 121.596 31.4 122.252 31.768C122.908 32.12 123.628 32.296 124.412 32.296Z" fill="white"/>
<path d="M136.212 22.984C136.596 22.232 137.14 21.648 137.844 21.232C138.564 20.816 139.436 20.608 140.46 20.608V22.864H139.884C137.436 22.864 136.212 24.192 136.212 26.848V34H134.028V20.848H136.212V22.984Z" fill="white"/>
<path d="M145.645 22.648V30.4C145.645 31.04 145.781 31.496 146.053 31.768C146.325 32.024 146.797 32.152 147.469 32.152H149.077V34H147.109C145.893 34 144.981 33.72 144.373 33.16C143.765 32.6 143.461 31.68 143.461 30.4V22.648H141.757V20.848H143.461V17.536H145.645V20.848H149.077V22.648H145.645Z" fill="white"/>
<path d="M163.723 26.92C163.723 27.336 163.699 27.776 163.651 28.24H153.139C153.219 29.536 153.659 30.552 154.459 31.288C155.275 32.008 156.259 32.368 157.411 32.368C158.355 32.368 159.139 32.152 159.763 31.72C160.403 31.272 160.851 30.68 161.107 29.944H163.459C163.107 31.208 162.403 32.24 161.347 33.04C160.291 33.824 158.979 34.216 157.411 34.216C156.163 34.216 155.043 33.936 154.051 33.376C153.075 32.816 152.307 32.024 151.747 31C151.187 29.96 150.907 28.76 150.907 27.4C150.907 26.04 151.179 24.848 151.723 23.824C152.267 22.8 153.027 22.016 154.003 21.472C154.995 20.912 156.131 20.632 157.411 20.632C158.659 20.632 159.763 20.904 160.723 21.448C161.683 21.992 162.419 22.744 162.931 23.704C163.459 24.648 163.723 25.72 163.723 26.92ZM161.467 26.464C161.467 25.632 161.283 24.92 160.915 24.328C160.547 23.72 160.043 23.264 159.403 22.96C158.779 22.64 158.083 22.48 157.315 22.48C156.211 22.48 155.267 22.832 154.483 23.536C153.715 24.24 153.275 25.216 153.163 26.464H161.467Z" fill="white"/>
<path d="M173.014 20.608C174.614 20.608 175.91 21.096 176.902 22.072C177.894 23.032 178.39 24.424 178.39 26.248V34H176.23V26.56C176.23 25.248 175.902 24.248 175.246 23.56C174.59 22.856 173.694 22.504 172.558 22.504C171.406 22.504 170.486 22.864 169.798 23.584C169.126 24.304 168.79 25.352 168.79 26.728V34H166.606V20.848H168.79V22.72C169.222 22.048 169.806 21.528 170.542 21.16C171.294 20.792 172.118 20.608 173.014 20.608Z" fill="white"/>
</svg>
